<?xml version="1.0" encoding="utf-8"?>
<!-- Generator: Adobe Illustrator 22.0.0, SVG Export Plug-In . SVG Version: 6.00 Build 0)  -->
<svg version="1.1" id="Capa_1" xmlns="http://www.w3.org/2000/svg" xmlns:xlink="http://www.w3.org/1999/xlink" x="0px" y="0px"
	 viewBox="0 0 16 16" style="enable-background:new 0 0 16 16;" xml:space="preserve">
<style type="text/css">
	.st0{fill:#FFFFFF;stroke:#FFFFFF;stroke-width:0.5;stroke-miterlimit:10;}
</style>
<g>
	<path class="st0" d="M8.7,7.9c0.1,0,0.5-0.2,0.8-0.2c0.2,0,0.3,0,0.5,0c0.1,0,0.1,0.1,0.1,0.2C10.1,7.9,10,8,9.9,8
		C9.8,8.1,9.6,8.2,9.6,8.2S9.4,8.3,9.3,8.4C9.1,8.4,9,8.5,8.8,8.5c-0.1,0-0.1,0.1-0.2,0.1C8.5,8.7,8.4,9,8.4,9
		c-0.1,0.2-0.1,0.9-0.2,1c0,0.1,0,0.2,0,0.4c0,0.3-0.1,0.8-0.1,0.8l0,0.4l0.2,0.8c0,0,0.2,0.6,0.3,0.9c0,0.2-0.1,0.3-0.2,0.4
		C8.2,13.7,8,13.5,8,13.5s-0.3-0.4-0.4-0.7c0-0.1-0.1-0.5-0.1-0.5s0-0.4,0-0.6c0-0.2,0-0.4,0-0.6c0-0.2,0-0.3,0-0.5
		c0-0.2,0.1-0.3,0.1-0.5c0-0.2,0.1-0.4,0.1-0.6c0-0.1,0-0.2,0-0.3c-0.1,0-0.4,0.2-0.6,0.3C6.9,9.5,6.7,9.6,6.4,9.7
		C6.3,9.7,6,9.9,6,9.9l-0.6,0.3c0,0-0.5,0.2-0.6,0.4c-0.1,0.1-0.2,0.3-0.3,0.5c-0.1,0.2-0.3,0.9-0.4,1c0,0.1-0.2,0.5-0.3,0.7
		c0,0.2-0.4,1.2-0.5,1.3c0,0.1-0.3,0.8-0.3,0.8L3,15c0,0-0.2,0.2-0.3,0.3c0,0-0.3,0.1-0.3,0.1c-0.1,0-0.1-0.1-0.1-0.2
		c0-0.4,0.3-1.1,0.3-1.1l0.2-0.5l0.3-0.7l0.2-0.5c0,0,0.1-0.3,0.2-0.5c0.1-0.1,0.1-0.3,0.2-0.5C3.8,11.3,3.9,11,4,10.7
		c0,0,0-0.1,0-0.1c-0.1-0.2,0-0.5,0.2-0.6c0.1,0,0.2-0.3,0.2-0.3L4.6,9l0.2-0.7c0,0,0.2-0.5,0.3-0.7c0-0.1,0.2-0.8,0.3-1.1
		C5.7,5.9,6,4.9,6,4.9s0.4-1.1,0.5-1.6C6.6,3.2,6.6,3,6.7,2.9c0.1-0.2,0.1-0.4,0.2-0.6C7.1,2,7.5,1.2,7.6,1C7.7,0.9,7.9,0.7,8,0.6
		c0.3-0.1,0.6-0.1,0.9,0C9,0.7,9.1,0.9,9.2,1.1c0,0.1,0.2,0.4,0.2,0.5c0,0.3,0.1,0.9,0.1,0.9S9.4,3.2,9.3,3.5c0,0.1,0,0.2,0,0.3
		c0,0.1-0.1,0.3-0.1,0.4C9.2,4.5,8.9,5.9,8.9,6.1C8.8,6.6,8.7,7.1,8.6,7.5C8.6,7.7,8.6,7.9,8.7,7.9z M8.8,2.9l0-0.9
		c0,0,0-0.5-0.1-0.7S8.5,1.2,8.4,1.2c-0.1,0-0.3,0-0.3,0.2C7.9,1.5,7.9,1.6,7.8,1.7C7.7,2,7.6,2.2,7.5,2.4c0,0.1-0.4,1-0.4,1
		L6.7,4.5l-0.3,1L6.2,6.2c0,0-0.4,1.2-0.4,1.3C5.7,7.8,5.6,8,5.5,8.2C5.4,8.6,5.3,9,5.3,9L5.1,9.4C5,9.5,5.2,9.5,5.2,9.5
		s0.2,0,0.3-0.1C5.7,9.3,6.2,9,6.2,9l0.6-0.3c0,0,0.5-0.2,0.7-0.3C7.7,8.4,7.9,8.2,7.9,8C7.9,7.8,8,7.7,8,7.5
		c0.1-0.4,0.2-0.8,0.3-1.2c0.1-0.5,0.1-0.6,0.2-1.1c0-0.2,0.1-0.8,0.1-0.8l0.1-0.7L8.8,2.9z"/>
	<path class="st0" d="M10.2,13.8c-0.1,0.1-0.1,0.1-0.1,0.2c-0.1,0.1-0.2,0.3-0.4,0.4c-0.1,0.1-0.3,0.1-0.3-0.1
		c0-0.1-0.1-0.2-0.1-0.2c0-0.1,0.1-0.2,0.1-0.3c0.2-0.2,0.4-0.5,0.6-0.7c0.2-0.2,0.4-0.2,0.7-0.1c0.2,0,0.3,0.2,0.3,0.4
		c0,0.1,0,0.3-0.1,0.4c-0.1,0.2-0.2,0.2-0.3,0.1C10.4,13.8,10.3,13.8,10.2,13.8z"/>
</g>
</svg>
